<svg xmlns="http://www.w3.org/2000/svg" viewBox="0 0 2080 2080"><defs>
<style>

.cls-1{
    fill:#fff;
    }
.cls-2,.cls-3{
    fill:none;stroke:#000;
    stroke-miterlimit:10;
    stroke-width:11px;
    }
.cls-3{
    stroke-linecap:round;
    }

.rotar{
    fill:none;stroke:#000;
    stroke-miterlimit:10;
    stroke-width:11px;
    animation: rotar 1s infinite linear; 
    transform-origin: 50% 17%;
}

@keyframes rotar {

    from{
        transform: rotate(0deg);
    }
    to{
        transform: rotate(360deg);
    }
}



</style>
</defs><g id="Layer_2" data-name="Layer 2"><g id="Layer_1-2" data-name="Layer 1"><rect class="cls-1" width="2080" height="2080"/>
<path class="cls-2" d="M787.81,1238.91s-165.45-8.17-138.89-171.58"/><path class="cls-2" d="M659.13,857s-161.67,30.23-77.62,173.62c0,0,83.75,94,196.09-12.26C777.6,1018.31,826.62,838.57,659.13,857Z"/><path class="cls-2" d="M669.77,856c4.67-62.32,50.56-195.17,357-195.17,0,0,369.7-20.42,441.19,257.37s91.91,461.61,91.91,461.61,47,283.92-167.49,345.19c-27.41,7.83-57.06,13.67-87.93,17.88-178.92,24.41-398.71-5.56-460.8-15.13-11-1.69-17-2.75-17-2.75S598.69,1625,670.78,1353.29c15.93-60,31.44-103.32,45.92-134.32"/><path class="cls-2" d="M863.38,1894.57c-31.45-12.87-25.88-109.79-19.71-166.79"/><line class="cls-2" x1="812.07" y1="1894.57" x2="881" y2="1894.57"/><path class="cls-2" d="M1329.08,1937.46c-45.74-43.77-36.84-134.92-24.61-194.55"/><line class="cls-2" x1="1271.64" y1="1933.63" x2="1345.94" y2="1933.63"/><path class="cls-2" d="M1244.83,903.42s-124.72-27.58-134.36,104.17,149.68,95,149.68,95,121-23.23,68.94-140.3C1329.09,962.27,1299.71,902.93,1244.83,903.42Z"/><path class="cls-3" d="M836.83,1055.08s144-8.17,151.15,6.12"/><ellipse cx="656.69" cy="962.27" rx="21.15" ry="15.32"/><ellipse cx="1226.08" cy="982.47" rx="18.95" ry="15.16"/><path class="cls-2" d="M1400.58,1294.05s20.42,281.88-16.34,306.39"/><path class="cls-2" d="M1425.08,1600.44c-.89-.3-15.12-16.19-25.74-37.08"/>
<path class="rotar" d="M951.81,257.34S824.15,289,871.13,386s76.06,51.07,76.06,51.07,46.49-96,105.72-75.58,92.94-79.66,92.94-79.66,15.32-111.32-159.32-71.49-66.38,282.9-6.13,287,172.6-28.6,154.22-72.51-8.17-120.51-77.62-126.64-96,12.26-96,12.26-40.85,135.83,117.45,85.78,88.85-166.46,88.85-166.46-73.53-79.66-134.81-9.2-14.3,232.86,46,212.43S1201,405.43,1218.36,304.32s-168.51-66.38-168.51-66.38Z"/></g></g></svg>